# xmcd
#
# Track frame offsets: 
#        150
#        18521
#        33612
#        44383
#        57578
#        73770
#        93035
#        106847
#        123367
#        145549
#        160446
#        176339
#
# Disc length: 2596 seconds
#
# Revision: 0
# Processed by: cddbd v1.5.2PL0 Copyright (c) Steve Scherf et al.
# Submitted via: ExactAudioCopy v1.0b4
#
DISCID=9e0a220c
DTITLE=E Flat Porch Band - E Flat Porch Band: 20 Years
DYEAR=2016
DGENRE=Blues
TTITLE0=Too Much Shake
TTITLE1=Long Gone Again
TTITLE2=Saturday Night Rub
TTITLE3=You Can't Get That Stuff No More
TTITLE4=Evolution Mama
TTITLE5=Hard Day Blues
TTITLE6=Sugar Cane
TTITLE7=Kokomo Ryder
TTITLE8=Phonograph Blues
TTITLE9=Pancake Man
TTITLE10=Ain't No Such Thing
TTITLE11=Hoy Hoy
EXTD=
EXTT0=
EXTT1=
EXTT2=
EXTT3=
EXTT4=
EXTT5=
EXTT6=
EXTT7=
EXTT8=
EXTT9=
EXTT10=
EXTT11=
PLAYORDER=
